HIERARCHY
ROOT Hips
{
	OFFSET 0.000000 0.000000 0.000000
	CHANNELS 6 Xposition Yposition Zposition Zrotation Yrotation Xrotation 
	JOINT LHipJoint
	{
		OFFSET 0.000000 0.000000 0.000000
		CHANNELS 3 Zrotation Yrotation Xrotation
		JOINT LeftUpLeg
		{
			OFFSET 1.363060 -1.794630 0.839290
			CHANNELS 3 Zrotation Yrotation Xrotation
			JOINT LeftLeg
			{
				OFFSET 2.448110 -6.726130 0.000000
				CHANNELS 3 Zrotation Yrotation Xrotation
				JOINT LeftFoot
				{
					OFFSET 2.562200 -7.039590 0.000000
					CHANNELS 3 Zrotation Yrotation Xrotation
					JOINT LeftToeBase
					{
						OFFSET 0.157640 -0.433110 2.322550
						CHANNELS 3 Zrotation Yrotation Xrotation
						End Site
						{
							OFFSET 0.000000 0.000000 0.000000
						}
					}
				}
			}
		}
	}
	JOINT RHipJoint
	{
		OFFSET 0.000000 0.000000 0.000000
		CHANNELS 3 Zrotation Yrotation Xrotation
		JOINT RightUpLeg
		{
			OFFSET -1.305520 -1.794630 0.839290
			CHANNELS 3 Zrotation Yrotation Xrotation
			JOINT RightLeg
			{
				OFFSET -2.542530 -6.985550 0.000000
				CHANNELS 3 Zrotation Yrotation Xrotation
				JOINT RightFoot
				{
					OFFSET -2.568260 -7.056230 0.000000
					CHANNELS 3 Zrotation Yrotation Xrotation
					JOINT RightToeBase
					{
						OFFSET -0.164730 -0.452590 2.363150
						CHANNELS 3 Zrotation Yrotation Xrotation
						End Site
						{
							OFFSET 0.000000 0.000000 0.000000
						}
					}
				}
			}
		}
	}
}
MOTION
Frames: 11
Frame Time: 0.008333
2.186758 17.003101 -1.322302 178.964898 74.356819 -171.928950 -8.956455 2.306268 4.973553 -20.732820 -1.543784 -27.607973 -3.359341 -0.711706 12.029345 0.367128 1.228785 -4.220264 0.274900 0.000001 -3.833300 10.876770 -5.627645 -0.323145 2.567529 -19.517129 1.627887 0.737717 -2.362758 29.691914 0.108680 14.201120 25.008456 7.407800 0.000000 -82.948099
2.347087 17.014594 -1.373157 178.165694 73.990059 -172.854611 -8.919065 2.365020 4.949914 -20.980019 -1.575808 -26.660614 -3.378255 -0.710010 12.092304 0.360554 1.085715 -4.573442 0.237200 -0.000000 -2.910200 11.034697 -5.524584 -0.467990 1.929133 -20.152893 0.559818 0.536075 -2.465372 32.260565 -0.077014 13.948563 26.589934 7.691199 0.000000 -80.777900
2.503087 17.025713 -1.426251 177.538233 73.657525 -173.618632 -8.892883 2.411054 4.915524 -21.178123 -1.574552 -25.687624 -3.392187 -0.716182 12.098910 0.358639 0.965650 -4.950600 0.201199 -0.000000 -2.173400 11.167078 -5.404095 -0.619047 1.370404 -20.713333 -0.531237 0.350215 -2.563476 34.846969 -0.269117 13.154778 27.850390 7.593800 0.000000 -78.308000
2.655075 17.036585 -1.481202 177.038707 73.359103 -174.263634 -8.876225 2.446106 4.872767 -21.334655 -1.552273 -24.686521 -3.401000 -0.729710 12.036784 0.361549 0.880436 -5.321937 0.168800 0.000000 -1.635200 11.275622 -5.268057 -0.774341 0.883242 -21.186567 -1.635215 0.177435 -2.661095 37.424131 -0.466187 11.782492 28.722986 7.066600 -0.000000 -75.738600
2.803383 17.047451 -1.537968 176.668762 73.092330 -174.782669 -8.869289 2.471782 4.823643 -21.448451 -1.510870 -23.674124 -3.404314 -0.748973 11.912361 0.367788 0.826048 -5.669489 0.140300 0.000000 -1.291500 11.360659 -5.120377 -0.927465 0.479142 -21.552624 -2.750978 0.015171 -2.760859 39.962807 -0.668330 9.837037 29.150276 6.107499 0.000000 -73.208300
2.948412 17.058519 -1.596297 176.408750 72.853302 -175.191364 -8.870766 2.489527 4.770119 -21.523754 -1.459183 -22.656128 -3.402198 -0.773035 11.724977 0.376877 0.805051 -5.978161 0.116099 0.000000 -1.126300 11.424500 -4.963557 -1.074188 0.157322 -21.798684 -3.873874 -0.138534 -2.864268 42.434667 -0.875964 7.388224 29.085716 4.776500 0.000000 -70.768200
3.090446 17.069957 -1.656007 176.254963 72.637499 -175.488107 -8.879927 2.500699 4.713898 -21.562184 -1.402378 -21.644628 -3.394721 -0.800592 11.482758 0.388001 0.814253 -6.241837 0.095900 -0.000000 -1.110000 11.469204 -4.800812 -1.209130 -0.078251 -21.912531 -5.003403 -0.284366 -2.971582 44.811654 -1.088822 4.558008 28.503087 3.186600 0.000000 -68.391800
3.229701 17.081873 -1.716719 176.182316 72.440501 -175.696433 -8.894857 2.506004 4.655843 -21.570427 -1.353268 -20.634618 -3.382030 -0.831239 11.181947 0.401873 0.861346 -6.455080 0.079900 0.000000 -1.207500 11.498025 -4.633679 -1.330597 -0.238566 -21.890342 -6.131486 -0.421828 -3.082452 47.066480 -1.304991 1.515422 27.404602 1.491300 0.000001 -65.990200
3.366459 17.094347 -1.778398 176.204332 72.257870 -175.795219 -8.915727 2.506868 4.596698 -21.547313 -1.308555 -19.646603 -3.364530 -0.863351 10.842738 0.417180 0.933869 -6.626247 0.067000 0.000000 -1.371300 11.512614 -4.466394 -1.431697 -0.315403 -21.722840 -7.263448 -0.549470 -3.194815 49.173079 -1.521104 -1.561552 25.829696 -0.150700 0.000000 -63.487100
3.500871 17.107365 -1.840831 176.316212 72.086168 -175.783182 -8.941780 2.504488 4.536924 -21.496284 -1.269861 -18.691129 -3.342830 -0.895903 10.477916 0.433604 1.026575 -6.763100 0.056500 -0.000001 -1.556101 11.515445 -4.301669 -1.508345 -0.312685 -21.409032 -8.402880 -0.665332 -3.306319 51.112617 -1.731207 -4.494311 23.842825 -1.594200 -0.000000 -60.702100
3.632484 17.120719 -1.903398 176.461850 71.922929 -175.730817 -8.970506 2.497430 4.471715 -21.431550 -1.253279 -17.721040 -3.316916 -0.929971 10.058288 0.454123 1.163593 -6.861245 0.049100 -0.000000 -1.729301 11.510006 -4.136669 -1.567275 -0.271606 -20.959887 -9.512583 -0.767719 -3.414369 52.853870 -1.930019 -7.137281 21.569821 -2.738700 -0.000001 -57.895300
